# xmcd
#
# Track frame offsets:
#	150
#	15199
#	31124
#	45305
#	56898
#	72192
#	87674
#	100433
#	107295
#	122344
#	138574
#
# Disc length: 2055 seconds
#
# Revision: 2
# Processed by: cddbd v1.5.2PL0 Copyright (c) Steve Scherf et al.
# Submitted via: audiograbber 1.83.01
#
DISCID=8508050b
DTITLE=Cassadee Pope - Stages
DYEAR=2019
DGENRE=Country
TTITLE0=Take You Home
TTITLE1=One More Red Light
TTITLE2=How I Feel Right Now
TTITLE3=Bring Me Down Town
TTITLE4=If My Heart Had A Heart
TTITLE5=FYI
TTITLE6=Distracted
TTITLE7=Gavi
TTITLE8=Don't Ask Me
TTITLE9=Still Got It
TTITLE10=I've Been Good
EXTD=
EXTT0=
EXTT1=
EXTT2=
EXTT3=
EXTT4=
EXTT5=
EXTT6=
EXTT7=
EXTT8=
EXTT9=
EXTT10=
PLAYORDER=
